<svg id="visual" viewBox="0 0 900 200" width="900" height="200" xmlns="http://www.w3.org/2000/svg" xmlns:xlink="http://www.w3.org/1999/xlink" version="1.1"><path d="M0 179L11.5 173.7C23 168.3 46 157.7 69 132.8C92 108 115 69 138.2 55.7C161.3 42.3 184.7 54.7 207.8 70.8C231 87 254 107 277 98.3C300 89.7 323 52.3 346 63.7C369 75 392 135 415.2 152.2C438.3 169.3 461.7 143.7 484.8 135.2C508 126.7 531 135.3 554 136.3C577 137.3 600 130.7 623 119.8C646 109 669 94 692.2 82.8C715.3 71.7 738.7 64.3 761.8 68.8C785 73.3 808 89.7 831 105.8C854 122 877 138 888.5 146L900 154L900 0L888.5 0C877 0 854 0 831 0C808 0 785 0 761.8 0C738.7 0 715.3 0 692.2 0C669 0 646 0 623 0C600 0 577 0 554 0C531 0 508 0 484.8 0C461.7 0 438.3 0 415.2 0C392 0 369 0 346 0C323 0 300 0 277 0C254 0 231 0 207.8 0C184.7 0 161.3 0 138.2 0C115 0 92 0 69 0C46 0 23 0 11.5 0L0 0Z" fill="#5fcfdd" stroke-linecap="round" stroke-linejoin="miter"></path></svg>